<?xml version="1.0" encoding="UTF-8"?>
<svg width="512px" height="526px" viewBox="0 0 512 526" version="1.1" xmlns="http://www.w3.org/2000/svg" xmlns:xlink="http://www.w3.org/1999/xlink">
    <!-- Generator: Sketch 58 (84663) - https://sketch.com -->
    <title>Group 2</title>
    <desc>Created with Sketch.</desc>
    <defs>
        <linearGradient x1="5.24446946%" y1="62.0174542%" x2="129.266992%" y2="31.8864197%" id="linearGradient-1">
            <stop stop-color="#FBE7C0" stop-opacity="0" offset="0%"></stop>
            <stop stop-color="#F5CD90" stop-opacity="0.91833826" offset="51.0131989%"></stop>
            <stop stop-color="#F5CB8C" offset="100%"></stop>
        </linearGradient>
        <linearGradient x1="12.7045505%" y1="49.383874%" x2="113.480772%" y2="51.7354446%" id="linearGradient-2">
            <stop stop-color="#FBE7C0" stop-opacity="0" offset="0%"></stop>
            <stop stop-color="#F5CD90" stop-opacity="0.91833826" offset="51.0131989%"></stop>
            <stop stop-color="#F5CB8C" offset="100%"></stop>
        </linearGradient>
        <linearGradient x1="0%" y1="44.9994958%" x2="123.947258%" y2="57.0113086%" id="linearGradient-3">
            <stop stop-color="#FBE7C0" stop-opacity="0" offset="0%"></stop>
            <stop stop-color="#F5CD90" stop-opacity="0.91833826" offset="51.0131989%"></stop>
            <stop stop-color="#F5CB8C" offset="100%"></stop>
        </linearGradient>
        <linearGradient x1="-34.8687147%" y1="51.3596493%" x2="92.7630134%" y2="49.5409074%" id="linearGradient-4">
            <stop stop-color="#F5CB8C" offset="0%"></stop>
            <stop stop-color="#F5CD90" stop-opacity="0.91833826" offset="48.9868011%"></stop>
            <stop stop-color="#FBE7C0" stop-opacity="0" offset="100%"></stop>
        </linearGradient>
        <linearGradient x1="-32.9352703%" y1="44.8141556%" x2="82.0600236%" y2="52.8969857%" id="linearGradient-5">
            <stop stop-color="#F5CB8C" offset="0%"></stop>
            <stop stop-color="#F5CD90" stop-opacity="0.91833826" offset="48.9868011%"></stop>
            <stop stop-color="#FBE7C0" stop-opacity="0" offset="100%"></stop>
        </linearGradient>
    </defs>
    <g id="Typography" stroke="none" stroke-width="1" fill="none" fill-rule="evenodd">
        <g id="Group-2" transform="translate(2.900000, -43.000000)">
            <circle id="Oval" fill="#FFFFFF" cx="261.6" cy="290.5" r="247.5"></circle>
            <g id="Group" transform="translate(261.100000, 388.000000) rotate(-121.500000) translate(-261.100000, -388.000000) translate(88.100000, 199.000000)" fill="#F97300" stroke="#FFFFFF">
                <path d="M258,-1.5 C288.635786,-1.5 318.494627,4.13723743 346.451431,14.9900373 L355.408461,18.4671463 L345.817814,17.8856201 C341.578692,17.6285821 337.304678,17.5 333,17.5 C251.900956,17.5 179.04976,63.5541751 143.545979,134.872963 L143.45353,135.058672 L143.314148,135.212319 C117.209596,163.988597 102.5,201.345635 102.5,241 C102.5,297.165027 132.140317,348.19248 179.515392,376.414174 L185.615755,380.048207 L178.566828,379.1919 C104.017893,370.135663 49.0752998,328.365106 13.8676056,254.024535 L13.7378881,253.750638 L13.7246815,253.447865 C13.5745403,250.00575 13.5,246.52353 13.5,243 C13.5,225.854496 15.2650397,208.935966 18.735997,192.431397 L19.1206923,190.602152 L20.8231937,191.373914 C26.7958624,194.081388 33.2960726,195.5 40,195.5 C65.6812409,195.5 86.5,174.681241 86.5,149 C86.5,129.979146 74.9738767,113.093912 57.6807673,105.97892 L55.9554697,105.269072 L57.0192374,103.736449 C102.422829,38.3212225 176.855823,-1.5 258,-1.5 Z" id="Combined-Shape" stroke-width="3"></path>
                <circle id="Oval" stroke-width="6" cx="40" cy="149" r="43"></circle>
            </g>
            <g id="Group" transform="translate(177.000000, 240.900000) rotate(-1.000000) translate(-177.000000, -240.900000) translate(4.000000, 51.900000)" fill="#37C0FF" stroke="#FFFFFF">
                <path d="M258,-1.5 C288.635786,-1.5 318.494627,4.13723743 346.451431,14.9900373 L355.408461,18.4671463 L345.817814,17.8856201 C341.578692,17.6285821 337.304678,17.5 333,17.5 C251.900956,17.5 179.04976,63.5541751 143.545979,134.872963 L143.45353,135.058672 L143.314148,135.212319 C117.209596,163.988597 102.5,201.345635 102.5,241 C102.5,297.165027 132.140317,348.19248 179.515392,376.414174 L185.615755,380.048207 L178.566828,379.1919 C104.017893,370.135663 49.0752998,328.365106 13.8676056,254.024535 L13.7378881,253.750638 L13.7246815,253.447865 C13.5745403,250.00575 13.5,246.52353 13.5,243 C13.5,225.854496 15.2650397,208.935966 18.735997,192.431397 L19.1206923,190.602152 L20.8231937,191.373914 C26.7958624,194.081388 33.2960726,195.5 40,195.5 C65.6812409,195.5 86.5,174.681241 86.5,149 C86.5,129.979146 74.9738767,113.093912 57.6807673,105.97892 L55.9554697,105.269072 L57.0192374,103.736449 C102.422829,38.3212225 176.855823,-1.5 258,-1.5 Z" id="Combined-Shape" stroke-width="3"></path>
                <circle id="Oval" stroke-width="6" cx="40" cy="149" r="43"></circle>
            </g>
            <g id="Group-Copy" transform="translate(343.192019, 241.782013) rotate(116.000000) translate(-343.192019, -241.782013) translate(168.192019, 49.782013)" fill="#AEFC00" stroke="#FFFFFF">
                <path d="M258,1.5 C288.635786,1.5 318.494627,7.13723743 346.451431,17.9900373 L355.408461,21.4671463 L345.817814,20.8856201 C341.578692,20.6285821 337.304678,20.5 333,20.5 C251.900956,20.5 179.04976,66.5541751 143.545979,137.872963 L143.45353,138.058672 L143.314148,138.212319 C117.209596,166.988597 102.5,204.345635 102.5,244 C102.5,300.165027 132.140317,351.19248 179.515392,379.414174 L185.615755,383.048207 L178.566828,382.1919 C104.017893,373.135663 49.0752998,331.365106 13.8676056,257.024535 L13.7378881,256.750638 L13.7246815,256.447865 C13.5745403,253.00575 13.5,249.52353 13.5,246 C13.5,228.854496 15.2650397,211.935966 18.735997,195.431397 L19.1206923,193.602152 L20.8231937,194.373914 C26.7958624,197.081388 33.2960726,198.5 40,198.5 C65.6812409,198.5 86.5,177.681241 86.5,152 C86.5,132.979146 74.9738767,116.093912 57.6807673,108.97892 L55.9554697,108.269072 L57.0192374,106.736449 C102.422829,41.3212225 176.855823,1.5 258,1.5 Z" id="Combined-Shape" stroke-width="3" transform="translate(180.454300, 191.851424) rotate(1.000000) translate(-180.454300, -191.851424) "></path>
                <circle id="Oval" stroke-width="6" cx="40.9208458" cy="149.32567" r="43"></circle>
            </g>
            <path d="M229.236868,428.326454 C267.251242,402.135622 310.630938,392.003093 359.375954,397.928867 C310.629362,402.753581 267.249667,412.88611 229.236868,428.326454 Z" id="Path-2" fill="#021035"></path>
            <path d="M264.756214,404.480866 L249.605426,412.307646 C227.384947,401.966744 191.611259,395.64576 142.284363,393.344695 C179.542055,387.990479 220.366005,391.702536 264.756214,404.480866 Z" id="Path-3" fill="#021035"></path>
            <path d="M248.876535,398.572482 L248.876535,376.558044 C248.876535,376.005759 249.32425,375.558044 249.876535,375.558044 L269.049241,375.558044 C269.601526,375.558044 270.049241,376.005759 270.049241,376.558044 L270.049241,404.2626 L270.049241,404.2626 L269.379853,404.00664 C262.972644,401.556657 256.33035,399.772439 249.557901,398.682172 L248.876535,398.572482 L248.876535,398.572482 Z" id="Path-6" fill="#021035"></path>
            <path d="M223.400442,351.876737 L229.236868,288.729367 C232.573265,287.076859 241.901949,286.250605 257.222921,286.250605 C272.543894,286.250605 283.944908,287.076859 291.425966,288.729367 L297.212098,351.876737 C284.420552,350.224229 271.090826,349.397975 257.222921,349.397975 C243.355016,349.397975 232.080857,350.224229 223.400442,351.876737 Z" id="Path-7" fill="#EB0000"></path>
            <path d="M300.802068,397.491236 L277.67362,401.640417 L272.599951,241.402304 C279.11871,241.405864 284.153364,241.677149 287.703913,242.216159 C287.703913,243.211934 287.703913,244.588183 287.703913,246.344908 L300.802068,397.491236 Z" id="Path-5" fill-opacity="0.15" fill="#000000"></path>
            <polygon id="Path-4" fill="#021035" points="288.299928 249.250499 306.124267 396.288837 298.796261 397.295774"></polygon>
            <path d="M261.6,233 C280.653824,233 296.1,237.029437 296.1,242 C296.1,243.618551 294.462193,245.137312 291.595331,246.449651 C292.572382,245.677879 293.1,244.854588 293.1,244 C293.1,239.581722 278.99697,236 261.6,236 C244.20303,236 230.1,239.581722 230.1,244 C230.1,244.854588 230.627618,245.677879 231.604638,246.450008 C228.737807,245.137312 227.1,243.618551 227.1,242 C227.1,237.029437 242.546176,233 261.6,233 Z" id="Combined-Shape" fill="#021035"></path>
            <path d="M261.6,222 C280.653824,222 296.1,225.581722 296.1,230 C296.1,231.346338 294.665756,232.614998 292.132235,233.728306 C292.764189,233.175685 293.1,232.596557 293.1,232 C293.1,228.172667 279.27762,225.062753 262.12091,225.000938 L261.6,225 C244.20303,225 230.1,228.134007 230.1,232 C230.1,232.596557 230.435811,233.175685 231.067717,233.728558 C228.534243,232.614998 227.1,231.346338 227.1,230 C227.1,225.581722 242.546176,222 261.6,222 Z" id="Combined-Shape-Copy" fill="#021035"></path>
            <path d="M262.087836,207.000871 C278.155231,207.058271 291.1,209.946048 291.1,213.5 C291.1,214.333268 290.388393,215.129914 289.091776,215.862045 C288.764993,212.64676 277.059881,210.05643 262.574935,210.00091 L262.1,210 C247.188312,210 235.1,212.686292 235.1,216 C235.1,216.128806 235.118265,216.256664 235.15425,216.383454 C233.198976,215.514484 232.1,214.53552 232.1,213.5 C232.1,209.910149 245.3076,207 261.6,207 Z" id="Combined-Shape-Copy-2" fill="#021035"></path>
            <path d="M239.738284,233 C247.307889,231.979457 254.952994,231.469185 262.673601,231.469185 C270.394207,231.469185 278.114814,231.979457 285.83542,233 L285.83542,228.864279 C278.152564,227.843735 270.469708,227.333464 262.786852,227.333464 C255.103996,227.333464 247.42114,227.843735 239.738284,228.864279 L239.738284,233 Z" id="Path-8" fill="#021035"></path>
            <path d="M239.738284,222.135721 C246.604392,220.716196 254.014999,220.006433 261.970104,220.006433 C269.92521,220.006433 277.880315,220.716196 285.83542,222.135721 L285.83542,214.666718 C285.835446,214.177546 285.481573,213.76017 284.998988,213.680159 C277.003531,212.354538 269.393253,211.691727 262.168155,211.691727 C254.964877,211.691727 247.761599,212.35054 240.558321,213.668167 C240.083337,213.755079 239.738284,214.168975 239.738284,214.651845 L239.738284,222.135721 L239.738284,222.135721 Z" id="Path-8-Copy" fill="#021035"></path>
            <polygon id="Path-9" fill="#021035" points="242.707681 181.24724 242.707681 187.348706 248.1 187.348706 248.1 181.24724 278.706459 181.24724 278.706459 187.348706 285.28675 187.348706 285.28675 181.24724 289.1 181.24724 289.1 177.333494 285.28675 177.333494 267.876491 162.904401 265.876491 155.556987 263.6 155.556987 261.6 162.904401 242.707681 176.344925 238.359817 176.344925 238.359817 181.24724"></polygon>
            <path d="M242.658763,195.567782 L248.1,195.567782 L248.1,199.602853 L278.736476,199.602853 L278.736476,195.567782 L285.092448,195.567782 L285.092448,205.264835 C277.69491,204.598168 270.512715,204.264835 263.545863,204.264835 C256.57901,204.264835 249.616644,204.598168 242.658763,205.264835 L242.658763,195.567782 Z" id="Path-10" fill="#021035"></path>
            <polygon id="Path-11" fill="url(#linearGradient-1)" points="242.658763 200.416309 165.885769 240.402304 135.198741 248.250499 242.658763 195.567782"></polygon>
            <polygon id="Path-12" fill="url(#linearGradient-2)" points="242.658763 187.348706 122.055897 178.76373 56.2781478 155.556987 238.359817 184.145108"></polygon>
            <polygon id="Path-13" fill="url(#linearGradient-3)" points="242.658763 187.348706 158.264308 165.019688 142.129588 155.556987 238.359817 184.145108"></polygon>
            <polygon id="Path-14" fill="url(#linearGradient-4)" points="277.405225 189.492366 360.458914 182.281509 378.09369 175.404781 278.706459 187.348706"></polygon>
            <polygon id="Path-15" fill="url(#linearGradient-5)" points="278.736476 195.567782 331.042513 213.729551 359.466334 215 285.83542 195.567782"></polygon>
        </g>
    </g>
</svg>