<?xml version="1.0" standalone="no"?>
<!DOCTYPE svg PUBLIC "-//W3C//DTD SVG 20010904//EN"
 "http://www.w3.org/TR/2001/REC-SVG-20010904/DTD/svg10.dtd">
<svg version="1.0" xmlns="http://www.w3.org/2000/svg"
 width="512.000000pt" height="512.000000pt" viewBox="0 0 512.000000 512.000000"
 preserveAspectRatio="xMidYMid meet">
<metadata>
Created by potrace 1.15, written by Peter Selinger 2001-2017
</metadata>
<g transform="translate(0.000000,512.000000) scale(0.100000,-0.100000)"
fill="#000000" stroke="none">
<path d="M2702 4038 c-7 -7 -12 -22 -12 -35 0 -16 -18 -35 -68 -71 -120 -83
-137 -101 -124 -123 7 -10 12 -27 12 -37 0 -10 3 -22 7 -25 11 -12 33 14 33
39 l0 24 118 -4 c64 -2 136 -4 159 -5 39 -1 42 -3 45 -33 3 -37 34 -52 44 -21
3 10 12 31 19 46 14 27 14 30 -17 55 -17 15 -47 39 -67 53 -62 46 -101 87
-101 106 0 18 -17 43 -30 43 -3 0 -11 -5 -18 -12z"/>
<path d="M2876 3622 c-2 -4 -86 -7 -186 -5 l-181 4 3 -23 c3 -22 7 -23 133
-29 72 -4 159 -8 194 -10 52 -3 66 -1 75 14 8 12 8 22 0 34 -13 20 -30 27 -38
15z"/>
<path d="M2460 3527 c-62 -14 -78 -39 -37 -58 20 -9 32 -7 65 10 40 20 88 24
272 22 27 -1 110 -18 117 -24 3 -4 -7 -7 -23 -8 -16 0 -100 -1 -186 -2 -131
-2 -160 -5 -174 -18 -10 -11 -14 -24 -9 -38 5 -18 14 -21 56 -21 48 0 66 -14
32 -24 -10 -3 -51 -7 -90 -10 -68 -4 -133 -28 -133 -48 0 -12 14 -10 46 7 41
21 75 19 81 -4 3 -11 15 -22 26 -26 22 -6 22 -6 2 -15 -11 -5 -35 -9 -53 -9
-42 -1 -101 -26 -108 -46 -7 -17 12 -45 30 -45 6 0 16 10 21 22 12 27 88 45
199 48 39 1 80 2 91 3 36 3 179 -15 235 -29 86 -22 90 -24 90 -45 0 -27 36
-25 51 3 10 19 8 25 -14 44 -14 12 -44 25 -66 29 -51 8 -65 25 -46 52 13 18
20 20 46 13 17 -5 37 -14 45 -21 8 -7 17 -9 20 -6 9 9 -4 37 -18 41 -7 2 -35
9 -63 15 -58 14 -63 17 -47 33 17 17 15 58 -5 80 -15 17 -15 18 2 18 10 0 26
-7 35 -15 14 -13 22 -14 44 -4 49 23 30 49 -49 68 -71 18 -416 23 -485 8z"/>
<path d="M2956 2979 c3 -57 10 -138 14 -179 9 -82 1 -107 -29 -90 -23 12 -203
30 -302 30 -97 0 -225 -18 -238 -34 -6 -7 -24 -129 -41 -272 -41 -352 -41
-319 -5 -318 185 9 325 10 395 3 117 -11 268 -33 275 -41 4 -3 13 -95 21 -204
9 -110 17 -205 19 -211 6 -17 50 -17 64 0 7 9 8 31 1 73 -5 32 -23 172 -40
309 -30 249 -75 625 -86 720 -9 81 -33 248 -39 280 -12 59 -15 37 -9 -66z"/>
<path d="M2587 1832 c-10 -17 -17 -72 -19 -144 -1 -89 -1 -88 -84 -63 -46 14
-149 33 -219 40 -203 21 -609 31 -570 15 11 -4 79 -16 150 -25 148 -19 471
-81 620 -119 114 -30 133 -31 195 -12 52 15 58 36 15 50 -65 19 -86 29 -78 37
4 4 37 1 73 -7 36 -8 72 -15 80 -17 12 -2 15 18 18 116 2 89 0 118 -10 121
-26 9 -167 15 -171 8z"/>
<path d="M3295 1643 c-11 -2 -101 -20 -200 -39 -183 -35 -274 -60 -420 -115
-170 -65 -239 -108 -128 -80 26 7 73 18 103 26 101 26 191 45 313 70 231 45
482 93 560 106 44 7 76 17 74 24 -4 10 -261 18 -302 8z"/>
</g>
</svg>
